PathFileType	3	(X/Y/Z)	C:\Users\dbak576\Desktop\Duncan Bakke Modelling Files\Output\AB08\_12Mar_ss_12ms_01\AB08_12Mar_ss_12ms_01.trc
DataRate	CameraRate	NumFrames	NumMarkers	Units	OrigDataRate	OrigDataStartFrame	OrigNumFrames
200.0	200.0	4	42	mm	200.0	3817	3036	
Frame#	Time	LASI			RASI			LPSI			RPSI			LTH1			LTH2			LTH3			LTH4			LMFC			LLFC			LTB1			LTB2			LTB3			LTB4			LMMAL			LLMAL			LCAL			LToe			LMT1			LMT5			RTH1			RTH2			RTH3			RTH4			RMFC			RLFC			RTB1			RTB2			RTB3			RTB4			RMMAL			RLMAL			RCAL			RToe			RMT1			RMT5			C7			T10			LACR1			RACR1			CLAV			RBack			
		X1	Y1	Z1	X2	Y2	Z2	X3	Y3	Z3	X4	Y4	Z4	X5	Y5	Z5	X6	Y6	Z6	X7	Y7	Z7	X8	Y8	Z8	X9	Y9	Z9	X10	Y10	Z10	X11	Y11	Z11	X12	Y12	Z12	X13	Y13	Z13	X14	Y14	Z14	X15	Y15	Z15	X16	Y16	Z16	X17	Y17	Z17	X18	Y18	Z18	X19	Y19	Z19	X20	Y20	Z20	X21	Y21	Z21	X22	Y22	Z22	X23	Y23	Z23	X24	Y24	Z24	X25	Y25	Z25	X26	Y26	Z26	X27	Y27	Z27	X28	Y28	Z28	X29	Y29	Z29	X30	Y30	Z30	X31	Y31	Z31	X32	Y32	Z32	X33	Y33	Z33	X34	Y34	Z34	X35	Y35	Z35	X36	Y36	Z36	X37	Y37	Z37	X38	Y38	Z38	X39	Y39	Z39	X40	Y40	Z40	X41	Y41	Z41	X42	Y42	Z42	
3817	19.075	344.82736	935.81097	-985.78485	600.48645	933.10144	-960.35071	391.71686	954.26202	-757.65283	509.39691	954.35754	-742.8797	324.93784	709.03967	-1098.9479	315.60748	670.30566	-1095.8124	365.58261	629.91309	-1111.5353	347.60986	666.6723	-1107.7239	431.99973	521.94983	-1100.739	308.2283	514.05066	-1072.908	287.92123	410.67789	-1081.9998	293.51462	326.90076	-1093.2345	311.14151	337.89255	-1142.7069	302.50912	374.13205	-1126.4276	408.58426	125.8495	-1173.7874	320.08951	113.8821	-1157.678	366.47241	46.354336	-1095.6909	389.40588	95.785088	-1393.1074	413.17819	76.236191	-1305.4347	300.49045	65.560699	-1291.2828	588.28485	642.76898	-907.02692	572.62994	585.01605	-876.76276	610.06366	576.52411	-828.38025	620.8111	625.93439	-857.84802	473.57941	475.06317	-770.59607	597.08807	498.31256	-736.15875	600.36963	383.46558	-696.68811	586.44287	346.55206	-690.23663	572.34344	301.32138	-670.3349	602.73535	322.83966	-630.98016	478.4729	149.28984	-540.00934	564.7937	151.36702	-500.87451	509.69635	118.43188	-415.96646	537.77563	32.176044	-698.52386	498.26901	39.576473	-610.96497	616.12775	47.128841	-580.06848	421.01477	1457.7827	-817.50897	437.53119	1205.4323	-750.01257	252.48021	1410.1576	-875.66089	577.39941	1439.0276	-878.75964	420.44165	1383.6858	-971.0979	556.61194	1360.8503	-765.55908
3818	19.08	343.67944	935.78113	-987.21826	599.26794	932.16779	-961.96765	390.80899	953.74896	-758.91248	508.56207	953.70544	-743.14142	323.20837	708.83832	-1100.056	313.87158	670.09784	-1097.0112	363.62198	629.62555	-1113.1897	345.66418	666.50439	-1109.1886	431.25369	521.18024	-1099.8552	306.77194	513.65594	-1072.5073	286.69067	411.12964	-1083.3008	292.13904	327.2818	-1093.9916	310.53217	337.82388	-1143.3247	301.86609	374.17041	-1127.288	407.94604	124.76443	-1171.1906	319.36713	113.13293	-1154.6016	366.14163	47.43573	-1090.6632	388.44986	88.862007	-1389.9496	412.55231	72.68924	-1301.3789	299.84363	61.437538	-1287.0255	587.65356	642.19348	-908.32751	572.20721	584.41223	-878.10022	609.77759	576.04974	-829.76721	620.39563	625.38037	-859.31189	473.51074	474.41806	-771.44049	597.17871	497.94312	-737.17194	600.66333	383.29034	-696.37054	586.80853	346.52371	-689.30695	572.66534	301.5217	-668.79254	602.96313	323.60141	-629.72424	478.9917	151.2233	-536.40942	565.32263	154.03586	-497.24164	509.83386	122.52773	-412.02615	537.57611	31.902891	-692.00372	498.47433	39.642723	-605.4054	616.22534	47.659309	-574.54468	420.11185	1457.3323	-817.57263	436.52811	1204.7263	-750.66681	251.5972	1409.9388	-875.99725	576.61279	1438.2405	-878.50714	419.58087	1383.5024	-971.33466	555.32617	1360.0406	-765.5072
3819	19.085	342.50928	935.71576	-988.71057	597.71936	931.5368	-964.02112	389.85406	953.39899	-760.25171	507.48538	953.01849	-745.6452	321.45276	708.7453	-1100.9984	312.07281	669.82147	-1097.8719	361.83868	629.4693	-1114.7919	343.82745	666.39581	-1110.5208	431.13712	520.44324	-1098.7441	305.24561	513.70007	-1072.5852	285.29385	411.63589	-1084.637	290.47424	327.8558	-1094.7113	309.7688	337.92584	-1143.8071	300.9986	374.49429	-1128.3086	407.23468	123.70003	-1168.0238	318.70062	112.52761	-1151.0988	365.80359	48.468769	-1085.5332	386.95551	82.795662	-1386.5491	411.44794	69.441261	-1297.2076	298.66238	57.619244	-1282.1074	587.08429	641.7373	-909.93073	571.75909	583.81732	-879.63403	608.81055	575.4928	-831.37653	619.85754	624.81616	-860.88483	473.42368	473.90216	-772.48132	597.3573	497.61591	-738.54596	601.01709	383.09872	-696.30432	587.17712	346.56866	-688.63177	572.90607	301.86368	-667.51025	603.2605	324.43823	-628.73071	479.48508	153.3125	-533.16882	565.90918	156.76974	-493.85385	509.89783	127.06709	-408.23898	537.57104	32.153522	-686.16107	498.69781	39.571056	-599.84869	616.24817	48.234486	-569.08807	419.14587	1456.988	-817.68585	435.50607	1204.1166	-751.46289	250.5565	1409.7234	-876.35931	575.86108	1437.5393	-878.33997	418.77875	1383.5035	-971.68884	553.93988	1359.3303	-765.40674
3820	19.09	341.43851	935.80725	-990.16254	596.42725	930.81378	-965.73401	388.77628	953.09167	-761.58234	506.63077	952.49762	-746.95459	319.87613	708.86182	-1101.7178	310.55725	669.77063	-1098.9016	360.06189	629.46375	-1116.1852	342.32904	666.31378	-1111.6902	430.96732	520.22583	-1097.4611	303.67365	514.10516	-1073.303	283.76382	412.33154	-1086.0978	288.86072	328.54669	-1095.3573	308.84683	337.96405	-1144.1066	300.07858	374.68307	-1129.0841	406.38519	122.90889	-1164.5858	318.26349	111.96629	-1147.2732	365.45911	49.493874	-1080.3822	385.03809	77.362312	-1382.5945	410.285	66.567215	-1292.8964	297.33707	54.064148	-1277.1836	586.31091	641.29803	-911.6026	571.27826	583.37024	-881.461	608.53259	574.99121	-833.36298	619.26788	624.422	-862.68427	473.43405	473.33615	-773.72589	597.62842	497.29074	-740.31921	601.41187	382.98175	-696.43762	587.62805	346.57425	-688.24854	573.25562	302.12421	-666.612	603.65143	325.18097	-628.04822	480.10364	155.47719	-530.20599	566.38885	159.68163	-490.76151	509.94748	131.88672	-404.82144	537.63104	32.121487	-679.93469	498.93854	39.461273	-594.33398	616.31696	48.835377	-563.67261	418.13138	1456.7015	-817.88501	434.4285	1203.6254	-752.12988	249.59328	1409.6678	-876.74683	575.15576	1436.9532	-878.11023	417.92484	1383.5499	-971.91663	552.64447	1358.7476	-765.27051
